
<svg xmlns="http://www.w3.org/2000/svg" width="677" height="217" viewBox="0 0 677 217">
  <metadata><?xpacket begin="﻿" id="W5M0MpCehiHzreSzNTczkc9d"?>
<x:xmpmeta xmlns:x="adobe:ns:meta/" x:xmptk="Adobe XMP Core 5.6-c138 79.159824, 2016/09/14-01:09:01        ">
   <rdf:RDF xmlns:rdf="http://www.w3.org/1999/02/22-rdf-syntax-ns#">
      <rdf:Description rdf:about=""/>
   </rdf:RDF>
</x:xmpmeta>





















<?xpacket end="w"?></metadata>
<defs>
    <style>
      .cls-1 {
        fill: #17d292;
        fill-rule: evenodd;
      }
    </style>
  </defs>
  <path class="cls-1" d="M50.007,89.79H15.563A15.545,15.545,0,0,1,0,74.266H0A15.544,15.544,0,0,1,15.563,58.743H50.007A15.544,15.544,0,0,1,65.573,74.266h0A15.545,15.545,0,0,1,50.007,89.79Zm611.427,51.915H626.99a15.545,15.545,0,0,1-15.566-15.523v0a15.545,15.545,0,0,1,15.566-15.522h34.444A15.544,15.544,0,0,1,677,126.18v0A15.544,15.544,0,0,1,661.434,141.705ZM78.786,0.014h476.6a18.457,18.457,0,0,1,18.483,18.457h0a14.974,14.974,0,0,1-14.994,14.934H522.905a9.075,9.075,0,0,0-9.086,9.062V47.2a9.074,9.074,0,0,0,9.086,9.061h88.3a14.975,14.975,0,0,1,14.994,14.954h0a14.974,14.974,0,0,1-14.927,14.954l-138.721.623a9.073,9.073,0,0,0-9.044,9.06v2.281a9.073,9.073,0,0,0,9.151,9.06l81.835-.585a14.977,14.977,0,0,1,15.1,15l-0.012,3.55a14.974,14.974,0,0,1-14.994,14.912h-108.7a9.073,9.073,0,0,0-9.085,9.06v8.59a9.072,9.072,0,0,0,8.971,9.06l183.1,2.272a23.519,23.519,0,0,1,23.258,23.486h0a23.519,23.519,0,0,1-23.551,23.487H33.048A28.2,28.2,0,0,1,4.809,187.858h0a28.2,28.2,0,0,1,28.383-28.164L94.343,160a9.073,9.073,0,0,0,9.132-9.059v-4.184a9.074,9.074,0,0,0-9.085-9.062H50.021a14.975,14.975,0,0,1-15-14.954v-1.084a14.975,14.975,0,0,1,15-14.954H177.46a9.073,9.073,0,0,0,9.085-9.061h0a9.072,9.072,0,0,0-9.085-9.06H90.974A14.974,14.974,0,0,1,75.979,73.631V70.579A14.974,14.974,0,0,1,90.974,55.624h98.034a9.073,9.073,0,0,0,9.084-9.061V39.041a9.072,9.072,0,0,0-9.084-9.061H78.786A14.975,14.975,0,0,1,63.791,15.026V14.968A14.975,14.975,0,0,1,78.786.014Z"/>
</svg>
