<?xml version="1.0" encoding="iso-8859-1"?>
<!-- Generator: Adobe Illustrator 19.0.0, SVG Export Plug-In . SVG Version: 6.00 Build 0)  -->
<svg version="1.1" id="Capa_1" xmlns="http://www.w3.org/2000/svg" xmlns:xlink="http://www.w3.org/1999/xlink" x="0px" y="0px"
	 viewBox="0 0 512 512" style="enable-background:new 0 0 512 512;" xml:space="preserve">
<path style="fill:#D23F45;" d="M83.682,317.362h0.006l-0.006-0.024h67.692l0.006,0.024h25.154V169.998H83.682
	C42.989,169.998,10,202.987,10,243.68l0,0C10,284.374,42.989,317.362,83.682,317.362z"/>
<path style="fill:#BDD0EC;" d="M176.533,317.425c0,0,147.243-8.354,216.517,110.824c3.721,6.402,13.515,3.762,13.515-3.644V285.867
	v-84.374V62.754c0-7.405-9.794-10.046-13.515-3.644c-69.274,119.179-216.517,110.824-216.517,110.824v0.063v147.364L176.533,317.425
	L176.533,317.425z"/>
<g>
	<path style="fill:#61BBF2;" d="M410.545,285.867c22.284,0,40.349-18.065,40.349-40.349v-3.676
		c0-22.284-18.065-40.349-40.349-40.349h-3.98v84.374H410.545z"/>
	<path style="fill:#61BBF2;" d="M83.682,317.339l0.006,0.024l29.467,121.172c2.566,10.553,12.018,17.982,22.879,17.982h19.228
		c15.256,0,26.484-14.286,22.879-29.109L151.38,317.364l-0.006-0.024L83.682,317.339L83.682,317.339z"/>
</g>
<path d="M177.1,159.951c-0.526-0.03-1.049-0.005-1.567,0.047H83.682C37.54,159.998,0,197.538,0,243.68
	c0,43.461,33.307,79.277,75.734,83.294l27.704,113.922c3.668,15.084,17.072,25.619,32.596,25.619h19.228
	c10.359,0,19.972-4.671,26.374-12.816c6.402-8.145,8.669-18.59,6.222-28.656l-23.755-97.682h11.413
	c0.52,0.053,1.045,0.078,1.575,0.048c0.356-0.02,36.201-1.812,79.64,10.539c57.445,16.333,100.401,48.405,127.675,95.326
	c3.171,5.457,8.78,8.602,14.796,8.602c1.52,0,3.065-0.201,4.604-0.615c7.633-2.057,12.761-8.75,12.761-16.655V295.494
	c24.933-2.986,44.329-24.252,44.329-49.976v-3.676c0-25.724-19.396-46.99-44.329-49.977V62.755c0-7.905-5.128-14.599-12.761-16.656
	c-7.631-2.055-15.428,1.153-19.4,7.986c-27.273,46.922-70.229,78.994-127.675,95.327C213.292,161.762,177.446,159.972,177.1,159.951
	z M165.911,441.341c-2.584,3.289-6.466,5.175-10.649,5.175h-19.228c-6.269,0-11.681-4.254-13.162-10.345L96.411,327.362h47.109
	l7.063,29.045h-4.78c-5.523,0-10,4.477-10,10s4.477,10,10,10h9.643l4.954,20.37h-3.134c-5.523,0-10,4.477-10,10s4.477,10,10,10
	h7.998l3.159,12.992C169.412,433.834,168.497,438.052,165.911,441.341z M151.924,307.362c-0.183-0.01-0.365-0.023-0.551-0.023
	H83.682c-0.095,0-0.189,0.014-0.284,0.016C48.415,307.2,20,278.699,20,243.68c0-35.114,28.568-63.682,63.682-63.682h82.851v84.928
	h-62.146c-5.523,0-10,4.477-10,10s4.477,10,10,10h62.146v22.436H151.924z M440.894,241.842v3.676
	c0,14.674-10.467,26.949-24.329,29.749v-63.174C430.426,214.893,440.894,227.168,440.894,241.842z M186.533,180.04
	c14.536-0.237,42.556-2.063,74.992-11.2c58.586-16.504,105.072-49.71,135.04-96.316v128.969v84.374v128.969
	c-29.968-46.606-76.453-79.813-135.04-96.316c-32.439-9.138-60.458-10.963-74.992-11.2v-32.394L186.533,180.04L186.533,180.04z"/>
<path d="M499.462,156.463c4.083-3.719,4.379-10.043,0.66-14.127c-3.719-4.083-10.043-4.378-14.127-0.66l-28.842,26.267
	c-4.083,3.719-4.379,10.043-0.66,14.127c1.974,2.167,4.68,3.267,7.396,3.267c2.403,0,4.814-0.861,6.73-2.606L499.462,156.463z"/>
<path d="M492.726,348.291c2.716,0,5.423-1.1,7.396-3.267c3.719-4.083,3.423-10.408-0.66-14.127L470.62,304.63
	c-4.084-3.718-10.408-3.423-14.127,0.66s-3.423,10.408,0.66,14.127l28.842,26.267C487.913,347.43,490.323,348.291,492.726,348.291z"
	/>
<path d="M502,233.68h-22.147c-5.523,0-10,4.477-10,10s4.477,10,10,10H502c5.523,0,10-4.477,10-10S507.523,233.68,502,233.68z"/>
<path d="M72.42,271.104c-0.25-0.61-0.56-1.19-0.92-1.73c-0.37-0.55-0.78-1.06-1.24-1.52c-0.47-0.46-0.98-0.88-1.53-1.24
	c-0.54-0.36-1.12-0.67-1.72-0.92c-0.61-0.25-1.24-0.44-1.87-0.57c-1.29-0.26-2.62-0.26-3.91,0c-0.64,0.13-1.27,0.32-1.87,0.57
	s-1.19,0.56-1.73,0.92c-0.55,0.36-1.06,0.78-1.52,1.24s-0.88,0.97-1.24,1.52c-0.36,0.54-0.67,1.12-0.92,1.73
	c-0.25,0.6-0.44,1.23-0.57,1.87c-0.13,0.64-0.2,1.3-0.2,1.95s0.07,1.31,0.2,1.96c0.13,0.63,0.32,1.26,0.57,1.87
	c0.25,0.6,0.56,1.18,0.92,1.72c0.36,0.55,0.78,1.06,1.24,1.52s0.97,0.88,1.52,1.25c0.54,0.36,1.13,0.67,1.73,0.92
	s1.23,0.44,1.87,0.57c0.65,0.13,1.3,0.19,1.95,0.19c0.66,0,1.31-0.06,1.96-0.19c0.64-0.13,1.26-0.32,1.87-0.57
	c0.6-0.25,1.18-0.56,1.72-0.92c0.55-0.37,1.06-0.79,1.53-1.25c0.46-0.46,0.87-0.97,1.24-1.52c0.36-0.54,0.67-1.12,0.92-1.72
	c0.25-0.61,0.44-1.24,0.57-1.87c0.13-0.65,0.19-1.31,0.19-1.96s-0.06-1.31-0.19-1.95C72.86,272.334,72.67,271.704,72.42,271.104z"/>
<g>
</g>
<g>
</g>
<g>
</g>
<g>
</g>
<g>
</g>
<g>
</g>
<g>
</g>
<g>
</g>
<g>
</g>
<g>
</g>
<g>
</g>
<g>
</g>
<g>
</g>
<g>
</g>
<g>
</g>
</svg>
