<?xml version="1.0" encoding="iso-8859-1"?>
<!-- Generator: Adobe Illustrator 19.0.0, SVG Export Plug-In . SVG Version: 6.00 Build 0)  -->
<svg version="1.1" id="Capa_1" xmlns="http://www.w3.org/2000/svg" xmlns:xlink="http://www.w3.org/1999/xlink" x="0px" y="0px"
	 viewBox="0 0 512 512" style="enable-background:new 0 0 512 512;" xml:space="preserve">
<path style="fill:#FFFFFF;" d="M53.99,172.376V107.99L151.977,10H438.01c11.046,0,20,8.954,20,20v452c0,11.046-8.954,20-20,20H73.99
	c-11.046,0-20-8.954-20-20v-98C53.99,384,53.99,172.376,53.99,172.376z"/>
<circle style="fill:#FF5D5D;" cx="255.99" cy="256" r="134"/>
<path style="fill:#FFC66C;" d="M131.977,107.99H53.99l97.987-97.988V87.99C151.977,99.036,143.023,107.99,131.977,107.99z"/>
<path d="M458.01,241.02c-2.63,0-5.21,1.061-7.07,2.92c-1.86,1.87-2.93,4.44-2.93,7.07c0,2.64,1.07,5.21,2.93,7.08
	c1.86,1.86,4.44,2.93,7.07,2.93s5.21-1.069,7.07-2.93c1.86-1.87,2.93-4.44,2.93-7.08c0-2.63-1.07-5.2-2.93-7.07
	C463.22,242.08,460.64,241.02,458.01,241.02z"/>
<path d="M468.01,30c0-16.542-13.458-30-30-30H151.977c-2.652,0-5.196,1.054-7.071,2.929l-97.987,97.99
	c-1.875,1.876-2.929,4.419-2.929,7.071V482c0,16.542,13.458,30,30,30h364.02c16.542,0,30-13.458,30-30V296c0-5.522-4.477-10-10-10
	s-10,4.478-10,10v186c0,5.514-4.486,10-10,10H73.99c-5.514,0-10-4.486-10-10V117.99h67.987c16.542,0,30-13.458,30-30V20H438.01
	c5.514,0,10,4.486,10,10v182c0,5.522,4.477,10,10,10s10-4.478,10-10V30z M131.977,97.99H78.131l63.846-63.848V87.99
	C141.977,93.504,137.491,97.99,131.977,97.99z"/>
<path d="M168.1,168.527l0.141-0.141c0.002-0.002,0.066-0.065,0.068-0.067c3.904-3.904,3.874-10.203-0.029-14.108
	c-3.903-3.907-10.264-3.878-14.17,0.023l-0.234,0.234c-3.882,3.928-3.845,10.259,0.083,14.142c1.949,1.927,4.49,2.888,7.029,2.888
	C163.566,171.498,166.144,170.507,168.1,168.527z"/>
<path d="M143.712,182.124c-4.828-2.688-10.916-0.952-13.602,3.873c-14.927,26.813-20.918,58.42-16.869,89.001
	c4.183,31.594,18.334,60.234,40.924,82.825C181.364,385.021,217.526,400,255.99,400s74.625-14.979,101.823-42.177
	S399.99,294.464,399.99,256s-14.979-74.625-42.177-101.823c-46.404-46.404-118.272-55.604-174.769-22.371
	c-4.761,2.8-6.35,8.929-3.55,13.689c2.801,4.76,8.93,6.349,13.69,3.549c48.642-28.611,110.526-20.688,150.487,19.275
	c48.348,48.347,48.348,127.015,0,175.361C320.25,367.102,289.111,380,255.99,380s-64.261-12.898-87.681-36.319
	c-38.992-38.992-47.514-99.833-20.723-147.955C150.272,190.9,148.538,184.811,143.712,182.124z"/>
<path d="M180.365,326.047c5.27,1.666,10.884-1.26,12.545-6.527l10.366-32.854h42.853l10.365,32.854
	c1.346,4.266,5.286,6.994,9.534,6.994c0.997,0,2.011-0.15,3.012-0.467c5.267-1.661,8.189-7.278,6.528-12.545l-8.485-26.892
	c5.028-0.526,8.948-4.777,8.948-9.944c0-5.522-4.477-10-10-10h-5.24l-26.552-84.155c-1.313-4.161-5.173-6.991-9.537-6.991
	c-4.364,0-8.224,2.83-9.537,6.991l-26.552,84.155h-5.241c-5.523,0-10,4.478-10,10c0,5.167,3.92,9.418,8.948,9.944l-8.485,26.892
	C172.176,318.769,175.098,324.386,180.365,326.047z M224.703,218.755l15.116,47.911h-30.233L224.703,218.755z"/>
<path d="M305.648,175.52c-5.523,0-10,4.478-10,10v11.002h-11.001c-5.523,0-10,4.478-10,10s4.477,10,10,10h11.001v11.002
	c0,5.522,4.477,10,10,10s10-4.478,10-10v-11.002h11.002c5.523,0,10-4.478,10-10s-4.477-10-10-10h-11.002V185.52
	C315.648,179.997,311.171,175.52,305.648,175.52z"/>
<g>
</g>
<g>
</g>
<g>
</g>
<g>
</g>
<g>
</g>
<g>
</g>
<g>
</g>
<g>
</g>
<g>
</g>
<g>
</g>
<g>
</g>
<g>
</g>
<g>
</g>
<g>
</g>
<g>
</g>
</svg>
